HIERARCHY
ROOT hips
{
  OFFSET 0 10.6860622 2.3727825e-15
  CHANNELS 6 Xposition Yposition Zposition Yrotation Xrotation Zrotation
  JOINT leftUpperLeg
  {
    OFFSET 0.6642549969 -0.9402397400000004 0
    CHANNELS 3 Yrotation Xrotation Zrotation
    JOINT leftLowerLeg
    {
      OFFSET 0 -3.997221335632195 0
      CHANNELS 3 Yrotation Xrotation Zrotation
      JOINT leftFoot
      {
        OFFSET -0.13777839790000004 -4.6145792000000005 -0.22186036399999998
        CHANNELS 3 Yrotation Xrotation Zrotation
        JOINT leftToes
        {
          OFFSET -0.03777410834999995 -0.9130806927000008 0.85230013
          CHANNELS 3 Yrotation Xrotation Zrotation
          End Site
          {
            OFFSET -0.03777410834999995 -0.9130806927000008 0.85230013
          }
        }
      }
    }
  }
  JOINT rightUpperLeg
  {
    OFFSET -0.6642778626 -0.9402397400000004 0
    CHANNELS 3 Yrotation Xrotation Zrotation
    JOINT rightLowerLeg
    {
      OFFSET 0 -3.997221452859387 0
      CHANNELS 3 Yrotation Xrotation Zrotation
      JOINT rightFoot
      {
        OFFSET 0.1377926176 -4.6145792000000005 -0.22185782299999995
        CHANNELS 3 Yrotation Xrotation Zrotation
        JOINT rightToes
        {
          OFFSET 0.037780746850000047 -0.9130806927000008 0.85230167
          CHANNELS 3 Yrotation Xrotation Zrotation
          End Site
          {
            OFFSET 0.037780746850000047 -0.9130806927000008 0.85230167
          }
        }
      }
    }
  }
  JOINT spine
  {
    OFFSET 0 0.13988381660000015 0
    CHANNELS 3 Yrotation Xrotation Zrotation
    JOINT chest
    {
      OFFSET 0 0.6191039003973773 0
      CHANNELS 3 Yrotation Xrotation Zrotation
      JOINT upperChest
      {
        OFFSET 0 0.9855186130586943 0
        CHANNELS 3 Yrotation Xrotation Zrotation
        JOINT leftShoulder
        {
          OFFSET 0.1807663869 1.5087829790000005 0
          CHANNELS 3 Yrotation Xrotation Zrotation
          JOINT leftUpperArm
          {
            OFFSET 0.5985063006419806 0 0
            CHANNELS 3 Yrotation Xrotation Zrotation
            JOINT leftLowerArm
            {
              OFFSET 2.2993332369501065 0 0
              CHANNELS 3 Yrotation Xrotation Zrotation
              JOINT leftHand
              {
                OFFSET 2.395047042602395 0 0
                CHANNELS 3 Yrotation Xrotation Zrotation
                JOINT leftIndexProximal
                {
                  OFFSET 0.5766295810000004 0.04556643899499946 0.17265095988184
                  CHANNELS 3 Yrotation Xrotation Zrotation
                  JOINT leftIndexIntermediate
                  {
                    OFFSET 0.2957229000000008 -0.019352197700001517 -0.007932640616999987
                    CHANNELS 3 Yrotation Xrotation Zrotation
                    JOINT leftIndexDistal
                    {
                      OFFSET 0.19008243099999922 -0.012484908149998475 -0.002786250786000012
                      CHANNELS 3 Yrotation Xrotation Zrotation
                      End Site
                      {
                        OFFSET 0.19008243099999922 -0.012484908149998475 -0.002786250786000012
                      }
                    }
                  }
                }
                JOINT leftMiddleProximal
                {
                  OFFSET 0.5834975091000001 0.0524350405149987 0.02204081888183999
                  CHANNELS 3 Yrotation Xrotation Zrotation
                  JOINT leftMiddleIntermediate
                  {
                    OFFSET 0.33880573540000003 -0.019871473270000717 -0.00000971183179999946
                    CHANNELS 3 Yrotation Xrotation Zrotation
                    JOINT leftMiddleDistal
                    {
                      OFFSET 0.20676022730000088 -0.012221336379999448 0.0001471936708000235
                      CHANNELS 3 Yrotation Xrotation Zrotation
                      End Site
                      {
                        OFFSET 0.20676022730000088 -0.012221336379999448 0.0001471936708000235
                      }
                    }
                  }
                }
                JOINT leftLittleProximal
                {
                  OFFSET 0.5344154683999995 -0.012880921405001189 -0.24414037221816004
                  CHANNELS 3 Yrotation Xrotation Zrotation
                  JOINT leftLittleIntermediate
                  {
                    OFFSET 0.21758961730000093 -0.011650919939999227 0.011893592810000034
                    CHANNELS 3 Yrotation Xrotation Zrotation
                    JOINT leftLittleDistal
                    {
                      OFFSET 0.1475273964999999 -0.008152365682999818 0.006001092492999946
                      CHANNELS 3 Yrotation Xrotation Zrotation
                      End Site
                      {
                        OFFSET 0.1475273964999999 -0.008152365682999818 0.006001092492999946
                      }
                    }
                  }
                }
                JOINT leftRingProximal
                {
                  OFFSET 0.5799399463000003 0.026911854694997794 -0.12150566991816003
                  CHANNELS 3 Yrotation Xrotation Zrotation
                  JOINT leftRingIntermediate
                  {
                    OFFSET 0.26167887460000006 -0.013480186499999602 0.010996293000000053
                    CHANNELS 3 Yrotation Xrotation Zrotation
                    JOINT leftRingDistal
                    {
                      OFFSET 0.17667108799999987 -0.008990287899999228 0.0055541023999999065
                      CHANNELS 3 Yrotation Xrotation Zrotation
                      End Site
                      {
                        OFFSET 0.17667108799999987 -0.008990287899999228 0.0055541023999999065
                      }
                    }
                  }
                }
                JOINT leftThumbProximal
                {
                  OFFSET 0.11018806699999972 -0.09448718900500053 0.17047963138184
                  CHANNELS 3 Yrotation Xrotation Zrotation
                  JOINT leftThumbIntermediate
                  {
                    OFFSET 0.31062601459999983 -0.08126270900000132 0.15443142000000007
                    CHANNELS 3 Yrotation Xrotation Zrotation
                    JOINT leftThumbDistal
                    {
                      OFFSET 0.21627175790000086 -0.08833193599999878 0.018771167799999988
                      CHANNELS 3 Yrotation Xrotation Zrotation
                      End Site
                      {
                        OFFSET 0.21627175790000086 -0.08833193599999878 0.018771167799999988
                      }
                    }
                  }
                }
              }
            }
          }
        }
        JOINT neck
        {
          OFFSET 0 1.5463305265074576 0
          CHANNELS 3 Yrotation Xrotation Zrotation
          JOINT head
          {
            OFFSET 0 0.8456443600000344 0
            CHANNELS 3 Yrotation Xrotation Zrotation
            JOINT leftEye
            {
              OFFSET 0.30408573140000006 0.5104519199999995 0.1276382305
              CHANNELS 3 Yrotation Xrotation Zrotation
              End Site
              {
                OFFSET 0.30408573140000006 0.5104519199999995 0.1276382305
              }
            }
            JOINT rightEye
            {
              OFFSET -0.30409491089999996 0.5104519199999995 0.1276379445
              CHANNELS 3 Yrotation Xrotation Zrotation
              End Site
              {
                OFFSET -0.30409491089999996 0.5104519199999995 0.1276379445
              }
            }
            JOINT jaw
            {
              OFFSET -3.155239131000001e-7 -0.11984121820000082 0.60178107
              CHANNELS 3 Yrotation Xrotation Zrotation
              End Site
              {
                OFFSET -3.155239131000001e-7 -0.11984121820000082 0.60178107
              }
            }
          }
        }
        JOINT rightShoulder
        {
          OFFSET -0.1807303465 1.5087829790000005 0
          CHANNELS 3 Yrotation Xrotation Zrotation
          JOINT rightUpperArm
          {
            OFFSET -0.5985063796536958 0 0
            CHANNELS 3 Yrotation Xrotation Zrotation
            JOINT rightLowerArm
            {
              OFFSET -2.2993322059002854 0 0
              CHANNELS 3 Yrotation Xrotation Zrotation
              JOINT rightHand
              {
                OFFSET -2.395045314457259 0 0
                CHANNELS 3 Yrotation Xrotation Zrotation
                JOINT rightIndexProximal
                {
                  OFFSET -0.5764487688300002 0.0441371204405987 0.17361932004999997
                  CHANNELS 3 Yrotation Xrotation Zrotation
                  JOINT rightIndexIntermediate
                  {
                    OFFSET -0.29573011380000047 -0.01934826376999843 -0.007698921482999974
                    CHANNELS 3 Yrotation Xrotation Zrotation
                    JOINT rightIndexDistal
                    {
                      OFFSET -0.19008373999999884 -0.012503266380000655 -0.0026365778999999897
                      CHANNELS 3 Yrotation Xrotation Zrotation
                      End Site
                      {
                        OFFSET -0.19008373999999884 -0.012503266380000655 -0.0026365778999999897
                      }
                    }
                  }
                }
                JOINT rightMiddleProximal
                {
                  OFFSET -0.5834852037300005 0.05211639405060153 0.02307162440000001
                  CHANNELS 3 Yrotation Xrotation Zrotation
                  JOINT rightMiddleIntermediate
                  {
                    OFFSET -0.33880114510000003 -0.019952774050000954 0.0002455003561999819
                    CHANNELS 3 Yrotation Xrotation Zrotation
                    JOINT rightMiddleDistal
                    {
                      OFFSET -0.20675694929999955 -0.012273788999999091 0.00030209124000002766
                      CHANNELS 3 Yrotation Xrotation Zrotation
                      End Site
                      {
                        OFFSET -0.20675694929999955 -0.012273788999999091 0.00030209124000002766
                      }
                    }
                  }
                }
                JOINT rightLittleProximal
                {
                  OFFSET -0.5346811737299992 -0.011214256288399227 -0.24363941305000003
                  CHANNELS 3 Yrotation Xrotation Zrotation
                  JOINT rightLittleIntermediate
                  {
                    OFFSET -0.21757715980000092 -0.011771559690000988 0.01201554387
                    CHANNELS 3 Yrotation Xrotation Zrotation
                    JOINT rightLittleDistal
                    {
                      OFFSET -0.1475201849000004 -0.00822055339600003 0.006082065407000015
                      CHANNELS 3 Yrotation Xrotation Zrotation
                      End Site
                      {
                        OFFSET -0.1475201849000004 -0.00822055339600003 0.006082065407000015
                      }
                    }
                  }
                }
                JOINT rightRingProximal
                {
                  OFFSET -0.5800810755299999 0.027657985680600072 -0.12066365025000003
                  CHANNELS 3 Yrotation Xrotation Zrotation
                  JOINT rightRingIntermediate
                  {
                    OFFSET -0.26166445029999974 -0.013623118409999302 0.011164098990000045
                    CHANNELS 3 Yrotation Xrotation Zrotation
                    JOINT rightRingDistal
                    {
                      OFFSET -0.17666387530000027 -0.009072900100000503 0.005668185599999959
                      CHANNELS 3 Yrotation Xrotation Zrotation
                      End Site
                      {
                        OFFSET -0.17666387530000027 -0.009072900100000503 0.005668185599999959
                      }
                    }
                  }
                }
                JOINT rightThumbProximal
                {
                  OFFSET -0.10997596379000074 -0.09577489355940072 0.16989765924999997
                  CHANNELS 3 Yrotation Xrotation Zrotation
                  JOINT rightThumbIntermediate
                  {
                    OFFSET -0.31036620999999986 -0.08229339117999834 0.15440884469999996
                    CHANNELS 3 Yrotation Xrotation Zrotation
                    JOINT rightThumbDistal
                    {
                      OFFSET -0.21631306399999906 -0.08825326400000111 0.018656797720000014
                      CHANNELS 3 Yrotation Xrotation Zrotation
                      End Site
                      {
                        OFFSET -0.21631306399999906 -0.08825326400000111 0.018656797720000014
                      }
                    }
                  }
                }
              }
            }
          }
        }
      }
    }
  }
}
MOTION
Frames: 6
Frame Time: 0.03333333333333333
0 -7.253419493038369 -5.779185568263398 -179.921629575572 71.3197325598953 0.06699693225164724 174.3647474609579 -69.9584827441943 -149.5630868832938 172.89920977930225 55.51228335211744 176.08679043107617 3.1711948679868196 49.59545983040919 12.129757412000103 0 0 0 -174.29721892791378 -69.94168811059664 149.48223308842523 -172.8908041045475 55.51192750761592 -176.078571026743 -3.167936258749516 49.614093662789706 -12.140764866022847 0 0 0 -0.06390086766445545 9.987058563360698 -0.10049022847437693 -0.5905176455627379 -9.448096938467192 -0.26092744746099816 0 0 0 -36.23554862812056 4.641708192809788 -12.130383313556548 -27.204361761001593 -2.6817833124754933 2.4190153251312854 -8.829434455924273 -10.204482532721313 4.524727812047295 -15.707437064346474 7.306108325137239 63.52347225730712 0 0 0 0 0 0 0 0 0 0 0 0 0 0 0 0 0 0 0 0 0 0 0 0 0 0 0 0 0 0 0 0 0 0 0 0 0 0 0 0 0 0 0 0 0 0 3.936633640613176 0 0 4.407964186320761 0 0 0 0 0 0 0 0 0 0 35.69177131311833 4.807697762924253 12.034789642086704 28.2831755126881 -2.6122779250078443 -2.547038691146219 8.780886258225356 -10.234749170567516 -4.628362047344456 15.466892925090956 7.514543635380553 -63.364724790815806 0 0 0 0 0 0 0 0 0 0 0 0 0 0 0 0 0 0 0 0 0 0 0 0 0 0 0 0 0 0 0 0 0 0 0 0 0 0 0 0 0 0 0 0 0
0 -7.248690152825684 -5.764512965379502 -179.88670210051814 71.9849583605761 0.09310797712481365 174.86441378614737 -69.19085323276984 -150.23215013437957 172.89920977930225 55.51228335211744 176.08679043107617 3.1804262274382706 49.81132953560654 11.976131110729854 0 0 0 -174.80158043663724 -69.17482456910102 150.15626108316923 -172.8908041045475 55.51192750761592 -176.078571026743 -3.177527399073173 49.82927343474873 -11.986989336436828 0 0 0 -0.06381600278483053 9.454560662207701 -0.09991349917237043 -0.5897960055078894 -9.015282127333146 -0.26534772924477046 0 0 0 -34.966098244169686 4.594334739415657 -11.888486262338597 -28.155363509864365 -2.6045571477859375 2.4525291817965407 -9.746006859087244 -10.117035308347033 5.022334038143693 -15.152101486668641 7.030744732984514 63.43247589433512 0 0 0 0 0 0 0 0 0 0 0 0 0 0 0 0 0 0 0 0 0 0 0 0 0 0 0 0 0 0 0 0 0 0 0 0 0 0 0 0 0 0 0 0 0 0 3.1392970705459793 0 0 3.6106625922738678 0 0 0 0 0 0 0 0 0 0 34.44063329476803 4.752574662649486 11.794539060234962 29.195967223039418 -2.5361939417126678 -2.574936589280783 9.699134115132573 -10.145650049307703 -5.122749815563075 14.919793483312882 7.2327386483534655 -63.27991519550653 0 0 0 0 0 0 0 0 0 0 0 0 0 0 0 0 0 0 0 0 0 0 0 0 0 0 0 0 0 0 0 0 0 0 0 0 0 0 0 0 0 0 0 0 0
0 -7.2439608126129995 -5.749840362495606 -179.84946241548784 72.65018057536939 0.12154742844586705 175.32268438035516 -68.42129204884476 -150.86023759664474 172.89920977930225 55.51228335211744 176.08679043107617 3.1887980378243013 50.02720950760121 11.821868930897965 0 0 0 -175.26427480585804 -68.40601289703817 150.78904040384722 -172.8908041045475 55.51192750761592 -176.078571026743 -3.1862623506915124 50.044468192789346 -11.832582142342186 0 0 0 -0.06381795087649855 8.922063769939353 -0.09943226626767201 -0.589108969976891 -8.582468237749096 -0.2697573255223725 0 0 0 -33.696949536865674 4.541632075758504 -11.647716283540268 -29.10626355386455 -2.526785993275272 2.4847533988639308 -10.661514515511064 -10.021769758656966 5.51831526927022 -14.59664686907857 6.756269453018857 63.3388464629714 0 0 0 0 0 0 0 0 0 0 0 0 0 0 0 0 0 0 0 0 0 0 0 0 0 0 0 0 0 0 0 0 0 0 0 0 0 0 0 0 0 0 0 0 0 0 2.3419606804490827 0 0 2.8133611007471773 0 0 0 0 0 0 0 0 0 0 33.18984289968788 4.692237700351195 11.555574105182664 30.10866959917734 -2.45967540253245 -2.6016163061673234 10.616301775378572 -10.048770212810574 -5.6154813900529925 14.372607820744978 6.9517506568855225 -63.192452814822296 0 0 0 0 0 0 0 0 0 0 0 0 0 0 0 0 0 0 0 0 0 0 0 0 0 0 0 0 0 0 0 0 0 0 0 0 0 0 0 0 0 0 0 0 0
0 -7.239231204008044 -5.735167759611709 -179.80956506135436 73.31639770630913 0.15264717001782926 175.7446072098186 -67.6482954247073 -151.45279138294615 172.89920977930225 55.51228335211744 176.08679043107617 3.1963016886834485 50.24316171069926 11.666922253114523 0 0 0 -175.69038429282406 -67.63373401464384 151.38604840483958 -172.8908041045475 55.51192750761592 -176.078571026743 -3.194131552934981 50.259729271901584 -11.677491941461543 0 0 0 -0.06374447522491926 8.389055099624848 -0.09885729622003643 -0.5884563957630923 -8.149380490338535 -0.274159556553038 0 0 0 -32.421063980984044 4.483288747476122 -11.406862719926082 -30.059996842654208 -2.4482489029491825 2.515772648022684 -11.578773023382961 -9.918378784181723 6.014102713517879 -14.040290652248434 6.482333090612419 63.24246001961254 0 0 0 0 0 0 0 0 0 0 0 0 0 0 0 0 0 0 0 0 0 0 0 0 0 0 0 0 0 0 0 0 0 0 0 0 0 0 0 0 0 0 0 0 0 0 1.5429106261228056 0 0 2.014345515748327 0 0 0 0 0 0 0 0 0 0 31.932661321697164 4.626348541029772 11.316727344095538 31.02386980270588 -2.3825222910450887 -2.627142098291331 11.535212365603646 -9.943797425955292 -6.107978093530084 13.824578576131978 6.671232734613537 -63.1022265718058 0 0 0 0 0 0 0 0 0 0 0 0 0 0 0 0 0 0 0 0 0 0 0 0 0 0 0 0 0 0 0 0 0 0 0 0 0 0 0 0 0 0 0 0 0
0 -7.2345015954030885 -5.720495156727813 -179.76674394433843 73.982600225428 0.18668564097188875 176.13277537047006 -66.87375315130836 -152.01204914850905 172.89920977930225 55.51228335211744 176.08679043107617 3.202922471915418 50.459125846191405 11.511313857841241 0 0 0 -176.0825041749593 -66.85987962048192 151.94952208062503 -172.8908041045475 55.51192750761592 -176.078571026743 -3.2011213469993187 50.47500697150508 -11.521744424256065 0 0 0 -0.06375618846925911 7.8560458267018065 -0.09837759840407255 -0.5878380684272413 -7.716294058420603 -0.2785521663261437 0 0 0 -31.145540779266646 4.419614756254817 -11.167392293112144 -31.013635603217782 -2.369206917027174 2.5454773020868986 -12.49479045528092 -9.807189488376027 6.507985519719377 -13.483766528402304 6.209339434018808 63.14345197295071 0 0 0 0 0 0 0 0 0 0 0 0 0 0 0 0 0 0 0 0 0 0 0 0 0 0 0 0 0 0 0 0 0 0 0 0 0 0 0 0 0 0 0 0 0 0 0.7438606203948567 0 0 1.2153300229472892 0 0 0 0 0 0 0 0 0 0 30.675885489983756 4.55525339026422 11.07941002414725 31.938987308673653 -2.3049716897418677 -2.651429814678816 12.452867717268592 -9.831065839312702 -6.598539495803311 13.276413276829752 6.3915845588209335 -63.00935539314053 0 0 0 0 0 0 0 0 0 0 0 0 0 0 0 0 0 0 0 0 0 0 0 0 0 0 0 0 0 0 0 0 0 0 0 0 0 0 0 0 0 0 0 0 0
0 -7.225042378193177 -5.691149682567748 -179.67065460083558 75.31665662907696 0.265232613824349 176.8213940127306 -65.31778213700876 -153.04491306750825 172.89920977930225 55.51228335211744 176.08679043107617 3.2134645605363494 50.89116252840686 11.197990227385382 0 0 0 -176.77840364557403 -65.30520706733698 152.99020807511212 -172.8908041045475 55.51192750761592 -176.078571026743 -3.212416982780338 50.905679587789 -11.208156483504071 0 0 0 -0.06371447187662481 6.7892000631281695 -0.09732548550596581 -0.5867029426816279 -6.849675090856598 -0.2873152153278414 0 0 0 -28.584034624313432 4.275704306666008 -10.69092401971008 -32.925447665033396 -2.20929037653059 2.6010458333659887 -14.327532415893954 -9.560895503400708 7.492054742361373 -12.36887289118179 5.665682459961332 62.93737947573622 0 0 0 0 0 0 0 0 0 0 0 0 0 0 0 0 0 0 0 0 0 0 0 0 0 0 0 0 0 0 0 0 0 0 0 0 0 0 0 0 0 0 0 0 0 0 -0.8570553902778155 0 0 -0.3855170084158492 0 0 0 0 0 0 0 0 0 0 28.15251879395738 4.39684512907879 10.60775740152911 33.77324552218538 -2.1483919213953393 -2.696366397437654 14.288861141199815 -9.581798287997858 -7.57586199732747 12.178365065405131 5.834391826247299 -62.81549472681792 0 0 0 0 0 0 0 0 0 0 0 0 0 0 0 0 0 0 0 0 0 0 0 0 0 0 0 0 0 0 0 0 0 0 0 0 0 0 0 0 0 0 0 0 0
